<svg width="44" height="27" viewBox="0 0 44 27" fill="none" xmlns="http://www.w3.org/2000/svg">
<g clip-path="url(#clip0_2_93)">
<path d="M43.2 0H0V27H43.2V0Z" fill="#5FCCFF"/>
<path d="M10.3585 12.6185H12.2188L11.286 10.3505L10.3585 12.6185ZM36.6984 15.7329L36.3218 15.3239L36.2948 15.2955L36.2678 15.2672L35.8641 14.8298L35.4955 14.4288L33.4598 12.2216L34.1375 11.4912V11.4831L36.076 9.3744H36.1044L37.1493 8.2485H32.3163L31.1999 9.4635L30.1536 8.24985H19.4724L18.5814 10.3032L17.6756 8.24985H13.5108V9.18945L13.0491 8.24985H9.4986L9.42435 8.41995L9.4176 8.4105L8.8209 9.801L7.8489 12.0245V12.065L6.075 16.2014L7.8489 16.1973H10.1776L10.7028 14.9283H11.8773L12.3998 16.1973H16.9803V15.228L17.3907 16.2014H19.7653L20.173 15.2172V16.1987H23.0148V16.2H23.625V16.1973H23.818V16.196H30.0092L31.1688 14.9607L32.2609 16.196L36.4365 16.2H37.125L36.6984 15.7329ZM22.5558 15.0755H21.1613L21.1531 10.6178L19.1794 15.0755H17.9847L16.0002 10.6083V15.0755H13.2313L12.7102 13.8051H9.87255L9.34605 15.0755H7.86645L10.3018 9.3771H12.3282L14.6435 14.7744V9.37845H16.8696L18.6489 13.2462L20.2878 9.37845H22.5558V15.0755ZM32.8509 15.0755L31.1742 13.1909L29.4314 15.0755H24.0368V9.37575H29.5164L31.1904 11.2428L32.9224 9.37575H34.7125L34.1375 9.99135L32.049 12.2364L34.5856 15.0768H32.8509V15.0755ZM25.3922 10.557V11.5911H28.3824V12.7535H25.3922V13.8888H28.7401L30.2926 12.2175L28.8036 10.557H25.3922Z" fill="white"/>
</g>
<defs>
<clipPath id="clip0_2_93">
<rect width="43.2" height="27" fill="white"/>
</clipPath>
</defs>
</svg>
