<svg width="44" height="27" viewBox="0 0 44 27" fill="none" xmlns="http://www.w3.org/2000/svg">
<g clip-path="url(#clip0_2_285)">
<path d="M40.9045 0H2.49681C1.23043 0 0.203819 1.02661 0.203819 2.29299V24.707C0.203819 25.9734 1.23043 27 2.49681 27H40.9045C42.1708 27 43.1974 25.9734 43.1974 24.707V2.29299C43.1974 1.02661 42.1708 0 40.9045 0Z" fill="#0079BE"/>
<path d="M33.7351 13.6403C33.7351 7.9413 28.9782 4.00208 23.7666 4.00398H19.2813C14.0073 4.00208 9.66621 7.94247 9.66621 13.6403C9.66621 18.8529 14.0073 23.1356 19.2813 23.1106H23.7666C28.9782 23.1355 33.7351 18.8517 33.7351 13.6403Z" fill="white"/>
<path d="M19.3091 4.81132C14.4898 4.81284 10.5846 8.72704 10.5834 13.5579C10.5846 18.388 14.4897 22.3018 19.3091 22.3033C24.1295 22.3018 28.0355 18.388 28.0362 13.5579C28.0355 8.72704 24.1295 4.81284 19.3091 4.81132Z" fill="#0079BE"/>
<path d="M13.7936 13.5343C13.7981 11.1736 15.2695 9.1606 17.3443 8.36066V18.7067C15.2695 17.9072 13.7981 15.8953 13.7936 13.5343ZM21.3032 18.7093V8.36066C23.3787 9.15867 24.8524 11.1728 24.8562 13.5346C24.8524 15.8971 23.3787 17.9097 21.3032 18.7093Z" fill="white"/>
</g>
<defs>
<clipPath id="clip0_2_285">
<rect width="42.9936" height="27" fill="white" transform="translate(0.203819)"/>
</clipPath>
</defs>
</svg>
