<svg width="44" height="27" viewBox="0 0 44 27" fill="none" xmlns="http://www.w3.org/2000/svg">
<g clip-path="url(#clip0_2_127)">
<mask id="mask0_2_127" style="mask-type:luminance" maskUnits="userSpaceOnUse" x="0" y="0" width="44" height="27">
<path d="M0 2.025C0 0.91125 0.91125 0 2.025 0H41.175C42.2887 0 43.2 0.91125 43.2 2.025V24.975C43.2 26.0888 42.2887 27 41.175 27H2.025C0.91125 27 0 26.0888 0 24.975V2.025V2.025Z" fill="white"/>
</mask>
<g mask="url(#mask0_2_127)">
<mask id="mask1_2_127" style="mask-type:luminance" maskUnits="userSpaceOnUse" x="-2" y="-2" width="47" height="31">
<path d="M44.8875 -1.6875H-1.6875V28.6875H44.8875V-1.6875Z" fill="white"/>
</mask>
<g mask="url(#mask1_2_127)">
<mask id="mask2_2_127" style="mask-type:luminance" maskUnits="userSpaceOnUse" x="0" y="0" width="44" height="27">
<path d="M43.2 0H0V27H43.2V0Z" fill="white"/>
</mask>
<g mask="url(#mask2_2_127)">
<path d="M44.8875 -1.6875H-1.6875V28.6875H44.8875V-1.6875Z" fill="white"/>
</g>
</g>
<mask id="mask3_2_127" style="mask-type:luminance" maskUnits="userSpaceOnUse" x="-2" y="-2" width="47" height="31">
<path d="M44.8875 -1.6875H-1.6875V28.6875H44.8875V-1.6875Z" fill="white"/>
</mask>
<g mask="url(#mask3_2_127)">
<mask id="mask4_2_127" style="mask-type:luminance" maskUnits="userSpaceOnUse" x="9" y="14" width="35" height="13">
<path d="M43.065 14.7487C43.065 14.7487 31.3537 23.0175 9.88875 26.6962H43.065V14.7487Z" fill="white"/>
</mask>
<g mask="url(#mask4_2_127)">
<mask id="mask5_2_127" style="mask-type:luminance" maskUnits="userSpaceOnUse" x="0" y="0" width="44" height="27">
<path d="M43.2 0H0V27H43.2V0Z" fill="white"/>
</mask>
<g mask="url(#mask5_2_127)">
<path d="M44.7525 13.0613H8.20125V28.3837H44.7525V13.0613Z" fill="#E6772F"/>
</g>
</g>
</g>
<mask id="mask6_2_127" style="mask-type:luminance" maskUnits="userSpaceOnUse" x="-2" y="-2" width="47" height="31">
<path d="M44.8875 -1.6875H-1.6875V28.6875H44.8875V-1.6875Z" fill="white"/>
</mask>
<g mask="url(#mask6_2_127)">
<mask id="mask7_2_127" style="mask-type:luminance" maskUnits="userSpaceOnUse" x="0" y="0" width="44" height="27">
<path d="M0 2.025C0 0.91125 0.91125 0 2.025 0H41.175C42.2887 0 43.2 0.91125 43.2 2.025V24.975C43.2 26.0888 42.2887 27 41.175 27H2.025C0.91125 27 0 26.0888 0 24.975V2.025V2.025Z" fill="white"/>
</mask>
<g mask="url(#mask7_2_127)">
<mask id="mask8_2_127" style="mask-type:luminance" maskUnits="userSpaceOnUse" x="0" y="0" width="44" height="27">
<path d="M43.2 0H0V27H43.2V0Z" fill="white"/>
</mask>
<g mask="url(#mask8_2_127)">
<path d="M0 2.025C0 0.91125 0.91125 0 2.025 0H41.175C42.2887 0 43.2 0.91125 43.2 2.025V24.975C43.2 26.0888 42.2887 27 41.175 27H2.025C0.91125 27 0 26.0888 0 24.975V2.025Z" stroke="#CBCBCB" stroke-width="0.675" stroke-miterlimit="10"/>
</g>
</g>
</g>
<mask id="mask9_2_127" style="mask-type:luminance" maskUnits="userSpaceOnUse" x="-2" y="-2" width="47" height="31">
<path d="M44.8875 -1.6875H-1.6875V28.6875H44.8875V-1.6875Z" fill="white"/>
</mask>
<g mask="url(#mask9_2_127)">
<mask id="mask10_2_127" style="mask-type:luminance" maskUnits="userSpaceOnUse" x="1" y="7" width="7" height="8">
<path d="M3.7125 7.99875H1.92375V14.2088H3.67875C4.62375 14.2088 5.29875 13.9725 5.90625 13.5C6.615 12.9263 7.02 12.015 7.02 11.1038C7.05375 9.28125 5.67 7.99875 3.7125 7.99875ZM5.13 12.6563C4.75875 12.9938 4.2525 13.1625 3.47625 13.1625H3.13875V9.045H3.47625C4.2525 9.045 4.725 9.18 5.13 9.55125C5.535 9.9225 5.805 10.4963 5.805 11.1038C5.805 11.7113 5.535 12.285 5.13 12.6563Z" fill="white"/>
</mask>
<g mask="url(#mask10_2_127)">
<mask id="mask11_2_127" style="mask-type:luminance" maskUnits="userSpaceOnUse" x="0" y="0" width="44" height="27">
<path d="M43.2 0H0V27H43.2V0Z" fill="white"/>
</mask>
<g mask="url(#mask11_2_127)">
<path d="M8.74125 6.31125H0.236252V15.8962H8.74125V6.31125Z" fill="#1A1919"/>
</g>
</g>
</g>
<mask id="mask12_2_127" style="mask-type:luminance" maskUnits="userSpaceOnUse" x="-2" y="-2" width="47" height="31">
<path d="M44.8875 -1.6875H-1.6875V28.6875H44.8875V-1.6875Z" fill="white"/>
</mask>
<g mask="url(#mask12_2_127)">
<mask id="mask13_2_127" style="mask-type:luminance" maskUnits="userSpaceOnUse" x="7" y="7" width="2" height="8">
<path d="M8.94375 7.99875H7.72875V14.2088H8.94375V7.99875Z" fill="white"/>
</mask>
<g mask="url(#mask13_2_127)">
<mask id="mask14_2_127" style="mask-type:luminance" maskUnits="userSpaceOnUse" x="0" y="0" width="44" height="27">
<path d="M43.2 0H0V27H43.2V0Z" fill="white"/>
</mask>
<g mask="url(#mask14_2_127)">
<path d="M10.6313 6.31125H6.04125V15.8962H10.6313V6.31125Z" fill="#1A1919"/>
</g>
</g>
</g>
<mask id="mask15_2_127" style="mask-type:luminance" maskUnits="userSpaceOnUse" x="-2" y="-2" width="47" height="31">
<path d="M44.8875 -1.6875H-1.6875V28.6875H44.8875V-1.6875Z" fill="white"/>
</mask>
<g mask="url(#mask15_2_127)">
<mask id="mask16_2_127" style="mask-type:luminance" maskUnits="userSpaceOnUse" x="9" y="8" width="5" height="7">
<path d="M11.9137 10.4962C11.1712 10.2262 10.9687 10.0575 10.9687 9.72C10.9687 9.315 11.34 9.045 11.88 9.045C12.2512 9.045 12.555 9.18 12.8587 9.55125L13.5 8.7075C12.9937 8.235 12.3525 8.0325 11.6775 8.0325C10.5637 8.0325 9.75375 8.80875 9.75375 9.82125C9.75375 10.665 10.1587 11.1037 11.2725 11.5425C11.745 11.7112 11.9812 11.8125 12.1162 11.9137C12.3525 12.0825 12.4875 12.285 12.4875 12.555C12.4875 13.0612 12.0825 13.4325 11.5425 13.4325C10.9687 13.4325 10.4962 13.1287 10.2262 12.5887L9.45 13.3312C10.0237 14.1412 10.665 14.5125 11.61 14.5125C12.8587 14.5125 13.77 13.6688 13.77 12.4538C13.7025 11.4413 13.2975 11.0025 11.9137 10.4962Z" fill="white"/>
</mask>
<g mask="url(#mask16_2_127)">
<mask id="mask17_2_127" style="mask-type:luminance" maskUnits="userSpaceOnUse" x="0" y="0" width="44" height="27">
<path d="M43.2 0H0V27H43.2V0Z" fill="white"/>
</mask>
<g mask="url(#mask17_2_127)">
<path d="M15.39 6.31125H7.72875V16.1663H15.39V6.31125Z" fill="#1A1919"/>
</g>
</g>
</g>
<mask id="mask18_2_127" style="mask-type:luminance" maskUnits="userSpaceOnUse" x="-2" y="-2" width="47" height="31">
<path d="M44.8875 -1.6875H-1.6875V28.6875H44.8875V-1.6875Z" fill="white"/>
</mask>
<g mask="url(#mask18_2_127)">
<mask id="mask19_2_127" style="mask-type:luminance" maskUnits="userSpaceOnUse" x="14" y="7" width="5" height="8">
<path d="M14.0062 11.0025C14.0062 12.825 15.4575 14.2425 17.28 14.2425C17.7862 14.2425 18.2587 14.1412 18.7987 13.8712V12.4538C18.3262 12.9263 17.8875 13.1288 17.3475 13.1288C16.1325 13.1288 15.255 12.2512 15.255 11.0025C15.255 9.82125 16.1325 8.87625 17.28 8.87625C17.8537 8.87625 18.2925 9.07875 18.7987 9.585V8.1675C18.2587 7.86375 17.82 7.7625 17.3137 7.7625C15.4575 7.7625 14.0062 9.21375 14.0062 11.0025Z" fill="white"/>
</mask>
<g mask="url(#mask19_2_127)">
<mask id="mask20_2_127" style="mask-type:luminance" maskUnits="userSpaceOnUse" x="0" y="0" width="44" height="27">
<path d="M43.2 0H0V27H43.2V0Z" fill="white"/>
</mask>
<g mask="url(#mask20_2_127)">
<path d="M20.4862 6.075H12.3187V15.93H20.4862V6.075Z" fill="#1A1919"/>
</g>
</g>
</g>
<mask id="mask21_2_127" style="mask-type:luminance" maskUnits="userSpaceOnUse" x="-2" y="-2" width="47" height="31">
<path d="M44.8875 -1.6875H-1.6875V28.6875H44.8875V-1.6875Z" fill="white"/>
</mask>
<g mask="url(#mask21_2_127)">
<mask id="mask22_2_127" style="mask-type:luminance" maskUnits="userSpaceOnUse" x="25" y="7" width="7" height="8">
<path d="M28.5525 12.1837L26.8987 7.99875H25.5825L28.215 14.3775H28.8562L31.5562 7.99875H30.24L28.5525 12.1837Z" fill="white"/>
</mask>
<g mask="url(#mask22_2_127)">
<mask id="mask23_2_127" style="mask-type:luminance" maskUnits="userSpaceOnUse" x="0" y="0" width="44" height="27">
<path d="M43.2 0H0V27H43.2V0Z" fill="white"/>
</mask>
<g mask="url(#mask23_2_127)">
<path d="M33.2437 6.31125H23.895V16.065H33.2437V6.31125Z" fill="#1A1919"/>
</g>
</g>
</g>
<mask id="mask24_2_127" style="mask-type:luminance" maskUnits="userSpaceOnUse" x="-2" y="-2" width="47" height="31">
<path d="M44.8875 -1.6875H-1.6875V28.6875H44.8875V-1.6875Z" fill="white"/>
</mask>
<g mask="url(#mask24_2_127)">
<mask id="mask25_2_127" style="mask-type:luminance" maskUnits="userSpaceOnUse" x="32" y="7" width="4" height="8">
<path d="M32.0963 14.2088H35.5388V13.1625H33.3113V11.475H35.4375V10.4288H33.3113V9.045H35.5388V7.99875H32.0963V14.2088Z" fill="white"/>
</mask>
<g mask="url(#mask25_2_127)">
<mask id="mask26_2_127" style="mask-type:luminance" maskUnits="userSpaceOnUse" x="0" y="0" width="44" height="27">
<path d="M43.2 0H0V27H43.2V0Z" fill="white"/>
</mask>
<g mask="url(#mask26_2_127)">
<path d="M37.2263 6.31125H30.4088V15.8962H37.2263V6.31125Z" fill="#1A1919"/>
</g>
</g>
</g>
<mask id="mask27_2_127" style="mask-type:luminance" maskUnits="userSpaceOnUse" x="-2" y="-2" width="47" height="31">
<path d="M44.8875 -1.6875H-1.6875V28.6875H44.8875V-1.6875Z" fill="white"/>
</mask>
<g mask="url(#mask27_2_127)">
<mask id="mask28_2_127" style="mask-type:luminance" maskUnits="userSpaceOnUse" x="36" y="7" width="6" height="8">
<path d="M40.4325 9.82125C40.4325 8.67375 39.6225 7.99875 38.2387 7.99875H36.45V14.2088H37.665V11.7113H37.8337L39.5212 14.2088H41.0062L39.0487 11.5763C39.9262 11.4075 40.4325 10.7662 40.4325 9.82125ZM38.0025 10.8675H37.665V8.9775H38.0362C38.7787 8.9775 39.1837 9.28125 39.1837 9.88875C39.1837 10.53 38.7787 10.8675 38.0025 10.8675Z" fill="white"/>
</mask>
<g mask="url(#mask28_2_127)">
<mask id="mask29_2_127" style="mask-type:luminance" maskUnits="userSpaceOnUse" x="0" y="0" width="44" height="27">
<path d="M43.2 0H0V27H43.2V0Z" fill="white"/>
</mask>
<g mask="url(#mask29_2_127)">
<path d="M42.66 6.31125H34.7625V15.8962H42.66V6.31125Z" fill="#1A1919"/>
</g>
</g>
</g>
<mask id="mask30_2_127" style="mask-type:luminance" maskUnits="userSpaceOnUse" x="-2" y="-2" width="47" height="31">
<path d="M44.8875 -1.6875H-1.6875V28.6875H44.8875V-1.6875Z" fill="white"/>
</mask>
<g mask="url(#mask30_2_127)">
<mask id="mask31_2_127" style="mask-type:luminance" maskUnits="userSpaceOnUse" x="19" y="7" width="7" height="8">
<path d="M25.785 11.0025C25.785 12.7912 24.3337 14.2425 22.545 14.2425C20.7562 14.2425 19.305 12.7912 19.305 11.0025C19.305 9.21375 20.7562 7.7625 22.545 7.7625C24.3337 7.7625 25.785 9.21375 25.785 11.0025Z" fill="white"/>
</mask>
<g mask="url(#mask31_2_127)">
<mask id="mask32_2_127" style="mask-type:luminance" maskUnits="userSpaceOnUse" x="0" y="0" width="44" height="27">
<path d="M43.2 0H0V27H43.2V0Z" fill="white"/>
</mask>
<g mask="url(#mask32_2_127)">
<path d="M27.4725 6.075H17.6175V15.93H27.4725V6.075Z" fill="#E6772F"/>
</g>
</g>
</g>
<mask id="mask33_2_127" style="mask-type:luminance" maskUnits="userSpaceOnUse" x="-2" y="-2" width="47" height="31">
<path d="M44.8875 -1.6875H-1.6875V28.6875H44.8875V-1.6875Z" fill="white"/>
</mask>
<g mask="url(#mask33_2_127)">
<mask id="mask34_2_127" style="mask-type:luminance" maskUnits="userSpaceOnUse" x="40" y="7" width="2" height="2">
<path d="M41.175 8.1675C41.175 8.06625 41.1075 7.99875 40.9725 7.99875H40.8037V8.5725H40.9387V8.33625L41.1075 8.5725H41.2762L41.0738 8.33625C41.1413 8.3025 41.175 8.26875 41.175 8.1675ZM40.9387 8.26875L40.905 8.13375H40.9387C41.0062 8.13375 41.04 8.1675 41.04 8.20125C41.04 8.235 41.0062 8.26875 40.9387 8.26875Z" fill="white"/>
</mask>
<g mask="url(#mask34_2_127)">
<mask id="mask35_2_127" style="mask-type:luminance" maskUnits="userSpaceOnUse" x="0" y="0" width="44" height="27">
<path d="M43.2 0H0V27H43.2V0Z" fill="white"/>
</mask>
<g mask="url(#mask35_2_127)">
<path d="M42.93 6.31125H39.0825V10.26H42.93V6.31125Z" fill="#1A1919"/>
</g>
</g>
</g>
<mask id="mask36_2_127" style="mask-type:luminance" maskUnits="userSpaceOnUse" x="-2" y="-2" width="47" height="31">
<path d="M44.8875 -1.6875H-1.6875V28.6875H44.8875V-1.6875Z" fill="white"/>
</mask>
<g mask="url(#mask36_2_127)">
<mask id="mask37_2_127" style="mask-type:luminance" maskUnits="userSpaceOnUse" x="40" y="7" width="2" height="2">
<path d="M41.04 7.7625C40.77 7.7625 40.5338 7.99875 40.5338 8.26875C40.5338 8.53875 40.77 8.775 41.04 8.775C41.31 8.775 41.5463 8.53875 41.5463 8.26875C41.5463 7.99875 41.31 7.7625 41.04 7.7625ZM41.04 8.67375C40.8038 8.67375 40.635 8.505 40.635 8.26875C40.635 8.0325 40.8038 7.86375 41.04 7.86375C41.2425 7.86375 41.445 8.06625 41.445 8.26875C41.445 8.47125 41.2763 8.67375 41.04 8.67375Z" fill="white"/>
</mask>
<g mask="url(#mask37_2_127)">
<mask id="mask38_2_127" style="mask-type:luminance" maskUnits="userSpaceOnUse" x="0" y="0" width="44" height="27">
<path d="M43.2 0H0V27H43.2V0Z" fill="white"/>
</mask>
<g mask="url(#mask38_2_127)">
<path d="M43.2338 6.075H38.8463V10.4625H43.2338V6.075Z" fill="#1A1919"/>
</g>
</g>
</g>
</g>
</g>
<defs>
<clipPath id="clip0_2_127">
<rect width="43.2" height="27" fill="white"/>
</clipPath>
</defs>
</svg>
