<svg width="42" height="27" viewBox="0 0 42 27" fill="none" xmlns="http://www.w3.org/2000/svg">
<g clip-path="url(#clip0_2_293)">
<path d="M38.9185 27H2.75064C1.2316 27 0 25.7684 0 24.2493V2.75077C0 1.23146 1.2316 0 2.75077 0H38.9185C40.4378 0 41.6693 1.23146 41.6693 2.75077V24.2492C41.6693 25.7684 40.4378 27 38.9185 27Z" fill="#F9F9F9"/>
<path d="M38.9185 27H2.75064C1.2316 27 0 25.7684 0 24.2493V2.75077C0 1.23146 1.2316 0 2.75077 0H38.9185C40.4378 0 41.6693 1.23146 41.6693 2.75077V24.2492C41.6693 25.7684 40.4378 27 38.9185 27Z" stroke="#303030" stroke-width="0.996377" stroke-miterlimit="10" stroke-linecap="round" stroke-linejoin="round"/>
<path d="M10.4393 9.66129C10.4393 9.73671 10.4393 9.7971 10.4393 9.85775C10.4391 11.3443 10.4436 12.8311 10.4368 14.3178C10.4344 14.8948 10.2508 15.4055 9.79749 15.7901C9.41281 16.1165 8.95314 16.2494 8.45947 16.2658C7.34541 16.3033 6.29958 16.0156 5.28707 15.5788C5.17969 15.5323 5.07625 15.4753 4.96617 15.4362C4.86909 15.4017 4.84851 15.3422 4.84851 15.2458C4.85095 12.0144 4.84798 8.78323 4.85149 5.55179C4.85353 3.61138 6.12573 2.02328 8.01794 1.60788C8.32624 1.54031 8.64985 1.5173 8.96655 1.51676C10.8142 1.51351 12.6621 1.52366 14.5099 1.52718C14.6192 1.52746 14.6907 1.52854 14.6907 1.67924C14.6865 8.31071 14.69 14.9422 14.683 21.5737C14.6819 22.7043 14.234 23.6586 13.4105 24.428C12.6478 25.1404 11.7313 25.4872 10.6903 25.491C8.80514 25.498 6.91972 25.4953 5.03441 25.4967C4.97904 25.4967 4.92379 25.4967 4.85947 25.4967C4.85947 22.6919 4.85947 19.899 4.85947 17.0901C5.0967 17.141 5.33134 17.1943 5.56694 17.2411C6.3444 17.395 7.12796 17.5142 7.92045 17.5395C8.59894 17.5609 9.28013 17.5709 9.95753 17.5365C10.7986 17.4939 11.6209 17.3332 12.3774 16.9345C13.3447 16.4248 13.866 15.6171 13.8851 14.528C13.9126 12.948 13.9019 11.3675 13.9082 9.78722C13.9085 9.70395 13.9004 9.64641 13.7888 9.64669C12.7007 9.65116 11.6125 9.65075 10.5246 9.65224C10.5021 9.65222 10.4796 9.65682 10.4393 9.66129Z" fill="#0152CC"/>
<path d="M15.9199 16.2933C16.045 16.3843 16.1549 16.4703 16.2704 16.5472C16.9615 17.0067 17.7342 17.2511 18.5424 17.3986C19.652 17.6006 20.7715 17.6124 21.8912 17.533C22.8206 17.4673 23.7366 17.3019 24.652 17.0806C24.652 16.5236 24.652 15.9677 24.652 15.3979C24.6161 15.4101 24.5819 15.4179 24.5512 15.433C23.7956 15.804 23.0086 16.0796 22.1733 16.1999C21.3541 16.3177 20.5378 16.34 19.7515 16.0213C18.8438 15.6531 18.3481 14.9631 18.2138 14.0045C18.1445 13.5118 18.1632 13.0212 18.3121 12.5435C18.622 11.5515 19.3375 11.0191 20.3229 10.8179C21.2531 10.6279 22.1725 10.7425 23.0692 11.0078C23.5597 11.153 24.0289 11.3704 24.5073 11.5562C24.5537 11.5741 24.5982 11.5972 24.6535 11.6226C24.6576 11.5785 24.6619 11.5513 24.6619 11.5242C24.6625 11.0318 24.6611 10.5392 24.6634 10.0469C24.664 9.96607 24.6481 9.92505 24.5559 9.90338C23.1692 9.57896 21.767 9.39454 20.3404 9.43679C19.3066 9.46739 18.2853 9.58193 17.306 9.9421C16.8101 10.1243 16.3502 10.372 15.9246 10.7206C15.9191 10.6696 15.9122 10.6359 15.9122 10.6023C15.9118 8.90928 15.9051 7.21637 15.9137 5.52348C15.9231 3.59905 17.1989 2.01718 19.0755 1.6042C19.3749 1.53813 19.6886 1.51267 19.9958 1.51118C21.8668 1.50265 23.738 1.50766 25.6092 1.50265C25.7487 1.50211 25.7774 1.54625 25.7774 1.67731C25.7743 8.24744 25.7751 14.8177 25.7741 21.3879C25.774 22.5524 25.3861 23.5635 24.5432 24.3786C23.8825 25.0176 23.0879 25.3867 22.1688 25.4731C21.9874 25.4901 21.8042 25.4964 21.622 25.4964C19.7789 25.4981 17.9359 25.4974 16.0928 25.4974C16.0378 25.4974 15.9827 25.4974 15.9199 25.4974C15.9199 22.4269 15.9199 19.3709 15.9199 16.2933Z" fill="#D22F2F"/>
<path d="M26.9829 9.65235C26.9803 9.59129 26.976 9.54106 26.976 9.49095C26.9756 8.17799 26.9729 6.86488 26.9763 5.55178C26.9817 3.61503 28.2534 2.02502 30.1423 1.60962C30.4506 1.54192 30.7738 1.51701 31.0904 1.51634C32.9379 1.51173 34.7855 1.52026 36.6331 1.52446C36.8147 1.52513 36.8152 1.52554 36.8152 1.71388C36.8153 8.28373 36.8067 14.8537 36.8208 21.4236C36.8247 23.2756 35.6449 24.7664 34.1128 25.2808C33.7056 25.4173 33.2872 25.4908 32.8594 25.4918C30.9508 25.4952 29.0421 25.4935 27.1335 25.4937C27.0876 25.4937 27.0417 25.4937 26.9833 25.4937C26.9805 25.4307 26.976 25.3807 26.976 25.3305C26.9756 22.7279 26.9768 20.1252 26.9727 17.5226C26.9726 17.3861 27.0107 17.3501 27.1458 17.3507C29.1012 17.3574 31.0567 17.3581 33.0121 17.3613C33.512 17.3621 34.0038 17.3181 34.4689 17.1175C35.042 16.8704 35.4722 16.4837 35.6562 15.8685C35.8778 15.1274 35.6133 14.3772 34.9772 13.9222C34.5546 13.6198 34.0754 13.4774 33.5654 13.4229C33.5338 13.4197 33.5025 13.4155 33.4676 13.3895C33.5938 13.3575 33.7216 13.3317 33.8455 13.2927C34.4889 13.0895 34.9892 12.7162 35.1805 12.0439C35.4389 11.1362 35.0573 10.2393 34.0015 9.85274C33.5692 9.69445 33.1188 9.65167 32.6624 9.6518C30.8288 9.65234 28.9952 9.65222 27.1618 9.65234C27.1063 9.65235 27.0508 9.65235 26.9829 9.65235Z" fill="#25BA2F"/>
<path d="M28.9438 16.0776C28.9438 15.3856 28.9438 14.7021 28.9438 14.0099C28.9845 14.0059 29.0203 13.9992 29.056 13.9991C29.7876 13.9985 30.519 13.9958 31.2505 13.9998C31.7525 14.0022 32.1518 14.2961 32.2762 14.7422C32.468 15.4294 32.0142 16.0673 31.2881 16.0874C30.5244 16.1085 29.7597 16.0921 28.9956 16.0917C28.9824 16.0917 28.9692 16.0846 28.9438 16.0776Z" fill="#25BA2F"/>
<path d="M28.9438 12.7729C28.9438 12.1361 28.9438 11.5145 28.9438 10.8831C28.9837 10.8779 29.0192 10.8692 29.0549 10.8692C29.7292 10.8687 30.4037 10.8643 31.0781 10.8718C31.5417 10.877 31.8863 11.1357 32.0058 11.5454C32.1861 12.1648 31.7739 12.7615 31.1305 12.7781C30.4332 12.7961 29.735 12.7846 29.0372 12.7852C29.0101 12.7852 28.9831 12.7782 28.9438 12.7729Z" fill="#25BA2F"/>
</g>
<defs>
<clipPath id="clip0_2_293">
<rect width="41.6693" height="27" fill="white"/>
</clipPath>
</defs>
</svg>
