<svg width="45" height="27" viewBox="0 0 45 27" fill="none" xmlns="http://www.w3.org/2000/svg">
<g clip-path="url(#clip0_2_38)">
<path d="M45 13.5007C45.0014 20.9543 38.9743 26.9979 31.5357 26.9993C24.0986 27.0021 18.0679 20.96 18.0657 13.5071V13.5C18.0629 6.045 24.0921 0.00214343 31.5293 5.698e-07C38.9664 -0.00214229 44.9979 6.04 45 13.4936C45 13.4936 45 13.4979 45 13.5007Z" fill="#FFB600"/>
<path d="M31.5293 0.000713918C38.9664 -0.00142894 44.9979 6.04 45 13.4943C45 13.4943 45 13.4986 45 13.5014C45.0014 20.955 38.9743 26.9986 31.5357 27C24.0986 27.0029 18.0679 20.9607 18.0657 13.5079" fill="#F7981D"/>
<path d="M31.5293 0.000713918C38.9664 -0.00142894 44.9979 6.04 45 13.4943C45 13.4943 45 13.4986 45 13.5014C45.0014 20.955 38.9743 26.9986 31.5357 27" fill="#FF8500"/>
<path d="M13.3814 0.00357056C5.98714 0.0514277 0 6.07928 0 13.5007C0 20.9514 6.03357 26.9979 13.4679 26.9979C16.955 26.9979 20.1364 25.6643 22.5293 23.4807V23.4793H22.5307C23.0214 23.0321 23.4779 22.5493 23.8986 22.0343H21.14C20.7714 21.59 20.4364 21.125 20.1357 20.645H24.8943C25.1843 20.1814 25.445 19.6979 25.68 19.2H19.35C19.1336 18.7364 18.9471 18.2629 18.7879 17.7829H26.2421C26.6914 16.4364 26.935 14.9971 26.935 13.5021C26.935 12.5093 26.8271 11.5429 26.625 10.6114H18.3914C18.4943 10.1321 18.6221 9.65786 18.7757 9.19428H26.2329C26.0664 8.69857 25.8721 8.21714 25.6529 7.74857H19.3486C19.5757 7.26286 19.8343 6.78857 20.1214 6.33143H24.8764C24.56 5.82643 24.2093 5.34357 23.8321 4.88714H21.18C21.59 4.40357 22.0421 3.94786 22.5307 3.52429C20.1379 1.33929 16.9571 0.00642817 13.4679 0.00642817C13.4379 0.00357103 13.4093 0.00357056 13.3814 0.00357056Z" fill="#FF5050"/>
<path d="M0 13.5007C0 20.9514 6.03357 26.9979 13.4679 26.9979C16.955 26.9979 20.1364 25.6643 22.5293 23.4807V23.4793H22.5307C23.0214 23.0321 23.4779 22.5493 23.8986 22.0343H21.14C20.7714 21.59 20.4364 21.125 20.1357 20.645H24.8943C25.1843 20.1814 25.445 19.6979 25.68 19.2H19.35C19.1336 18.7364 18.9471 18.2629 18.7879 17.7829H26.2421C26.6914 16.4364 26.935 14.9971 26.935 13.5021C26.935 12.5093 26.8271 11.5429 26.625 10.6114H18.3914C18.4943 10.1321 18.6221 9.65786 18.7757 9.19429H26.2329C26.0664 8.69857 25.8721 8.21714 25.6529 7.74857H19.3486C19.5757 7.26286 19.8343 6.78857 20.1214 6.33143H24.8764C24.56 5.82643 24.2093 5.34357 23.8321 4.88714H21.18C21.59 4.40357 22.0421 3.94786 22.5307 3.52429C20.1379 1.33929 16.9571 0.00642967 13.4679 0.00642967C13.4379 0.00642967 13.4093 0.00642967 13.3814 0.00642967" fill="#E52836"/>
<path d="M13.4679 26.9971C16.955 26.9971 20.1364 25.6636 22.5293 23.48V23.4786H22.5307C23.0214 23.0314 23.4779 22.5486 23.8986 22.0336H21.14C20.7714 21.5893 20.4364 21.1243 20.1357 20.6443H24.8943C25.1843 20.1807 25.445 19.6971 25.68 19.1993H19.35C19.1336 18.7357 18.9471 18.2621 18.7879 17.7821H26.2421C26.6914 16.4357 26.935 14.9964 26.935 13.5014C26.935 12.5086 26.8271 11.5421 26.625 10.6107H18.3914C18.4943 10.1314 18.6221 9.65714 18.7757 9.19357H26.2329C26.0664 8.69786 25.8721 8.21643 25.6529 7.74786H19.3486C19.5757 7.26214 19.8343 6.78785 20.1214 6.33071H24.8764C24.56 5.82571 24.2093 5.34286 23.8321 4.88643H21.18C21.59 4.40286 22.0421 3.94714 22.5307 3.52357C20.1379 1.33857 16.9571 0.00571251 13.4679 0.00571251C13.4379 0.00571251 13.4093 0.00571251 13.3814 0.00571251" fill="#CB2026"/>
<path d="M18.3107 16.9371L18.49 15.7157C18.3914 15.7157 18.2471 15.7579 18.1193 15.7579C17.6214 15.7579 17.5657 15.4914 17.5979 15.2957L18.0007 12.8036H18.7593L18.9429 11.4514H18.2279L18.3743 10.6114H16.9393C16.9079 10.6429 16.0929 15.3364 16.0929 15.9079C16.0929 16.7543 16.5657 17.1314 17.235 17.1257C17.7579 17.12 18.1671 16.975 18.3107 16.9371Z" fill="white"/>
<path d="M18.765 14.6079C18.765 16.6393 20.1021 17.1221 21.2421 17.1221C22.2943 17.1221 22.7557 16.8857 22.7557 16.8857L23.0093 15.5C23.0093 15.5 22.2086 15.8543 21.4857 15.8543C19.9464 15.8543 20.2164 14.7036 20.2164 14.7036H23.1307C23.1307 14.7036 23.3193 13.7721 23.3193 13.3921C23.3193 12.4457 22.8479 11.2929 21.2743 11.2929C19.8314 11.2914 18.765 12.8486 18.765 14.6079ZM21.28 12.5779C22.0886 12.5779 21.9393 13.4893 21.9393 13.5629H20.3471C20.3464 13.4693 20.4964 12.5779 21.28 12.5779Z" fill="white"/>
<path d="M30.3586 16.9371L30.615 15.3686C30.615 15.3686 29.9121 15.7243 29.4293 15.7243C28.4121 15.7243 28.0043 14.9443 28.0043 14.1093C28.0043 12.4121 28.8793 11.4779 29.8536 11.4779C30.5843 11.4779 31.1707 11.89 31.1707 11.89L31.405 10.3679C31.405 10.3679 30.535 10.015 29.79 10.015C28.1343 10.015 26.5236 11.4536 26.5236 14.1571C26.5236 15.9486 27.3943 17.1329 29.1043 17.1329C29.5886 17.1329 30.3586 16.9371 30.3586 16.9371Z" fill="white"/>
<path d="M10.4236 11.3136C9.44 11.3136 8.68714 11.6286 8.68714 11.6286L8.47857 12.8671C8.47857 12.8671 9.10143 12.6143 10.0414 12.6143C10.5743 12.6143 10.965 12.6743 10.965 13.1093C10.965 13.3736 10.9179 13.4714 10.9179 13.4714C10.9179 13.4714 10.4971 13.435 10.3014 13.435C9.06286 13.435 7.75928 13.965 7.75928 15.565C7.75928 16.825 8.61286 17.1136 9.14357 17.1136C10.155 17.1136 10.59 16.4564 10.6143 16.4536L10.5686 17.0036H11.8307L12.3936 13.0457C12.3929 11.3686 10.9314 11.3136 10.4236 11.3136ZM10.7314 14.535C10.7579 14.7779 10.5786 15.9107 9.71571 15.9107C9.27071 15.9107 9.15428 15.5686 9.15428 15.3679C9.15428 14.9743 9.36786 14.5021 10.4193 14.5021C10.6643 14.5021 10.69 14.5293 10.7314 14.535Z" fill="white"/>
<path d="M13.735 17.0857C14.0579 17.0857 15.9036 17.1693 15.9036 15.2593C15.9036 13.4736 14.195 13.8264 14.195 13.1086C14.195 12.7536 14.4729 12.6393 14.9829 12.6393C15.1843 12.6393 15.9629 12.7043 15.9629 12.7043L16.1443 11.435C16.1443 11.435 15.6407 11.3229 14.8214 11.3229C13.7593 11.3229 12.6829 11.7464 12.6829 13.1986C12.6829 14.8457 14.4786 14.6786 14.4786 15.3714C14.4786 15.8343 13.9771 15.8729 13.59 15.8729C12.9214 15.8729 12.3207 15.6421 12.3179 15.6529L12.1257 16.9086C12.1593 16.92 12.5321 17.0857 13.735 17.0857Z" fill="white"/>
<path d="M42.2364 10.1743L41.9271 12.0979C41.9271 12.0979 41.3871 11.3514 40.5429 11.3514C39.2286 11.3514 38.1336 12.9386 38.1336 14.7621C38.1336 15.9407 38.7171 17.0929 39.9114 17.0929C40.7707 17.0929 41.2457 16.4929 41.2457 16.4929L41.1836 17.005H42.5779L43.6736 10.1714L42.2364 10.1743ZM41.5707 13.9271C41.5707 14.685 41.1957 15.6979 40.4186 15.6979C39.9014 15.6979 39.6607 15.2643 39.6607 14.5821C39.6607 13.4686 40.1593 12.7321 40.7886 12.7321C41.3057 12.7329 41.5707 13.0886 41.5707 13.9271Z" fill="white"/>
<path d="M2.65929 17.0114L3.53286 11.8521L3.66143 17.0114H4.64929L6.49357 11.8521L5.67571 17.0114H7.14286L8.27429 10.1707H6.00429L4.59 14.3679L4.51643 10.1707H2.425L1.27857 17.0114H2.65929Z" fill="white"/>
<path d="M24.7521 17.0221C25.1693 14.6443 25.2464 12.7121 26.2429 13.0643C26.4171 12.1443 26.585 11.7886 26.7757 11.3986C26.7757 11.3986 26.6864 11.38 26.4986 11.38C25.8579 11.38 25.3821 12.2593 25.3821 12.2593L25.5093 11.4521H24.1736L23.28 17.0221H24.7521Z" fill="white"/>
<path d="M33.6679 11.3136C32.6843 11.3136 31.9307 11.6286 31.9307 11.6286L31.7236 12.8671C31.7236 12.8671 32.3443 12.6143 33.2857 12.6143C33.82 12.6143 34.2107 12.6743 34.2107 13.1093C34.2107 13.3736 34.1621 13.4714 34.1621 13.4714C34.1621 13.4714 33.7414 13.435 33.5457 13.435C32.3057 13.435 31.0036 13.965 31.0036 15.565C31.0036 16.825 31.8579 17.1136 32.3879 17.1136C33.4 17.1136 33.835 16.4564 33.8586 16.4536L33.8129 17.0036H35.0764L35.6393 13.0457C35.6379 11.3686 34.1771 11.3136 33.6679 11.3136ZM33.975 14.535C34.0021 14.7779 33.825 15.9107 32.9593 15.9107C32.5143 15.9107 32.3993 15.5686 32.3993 15.3679C32.3993 14.9743 32.6129 14.5021 33.6629 14.5021C33.9079 14.5021 33.9336 14.5293 33.975 14.535Z" fill="white"/>
<path d="M36.79 17.0221C37.2086 14.6443 37.285 12.7121 38.2821 13.0643C38.4564 12.1443 38.6243 11.7886 38.815 11.3986C38.815 11.3986 38.725 11.38 38.5379 11.38C37.895 11.38 37.4207 12.2593 37.4207 12.2593L37.5493 11.4521H36.2129L35.3186 17.0221H36.79Z" fill="white"/>
<path d="M16.0929 15.9079C16.0929 16.7543 16.5657 17.1314 17.235 17.1257C17.7579 17.12 18.1671 16.975 18.3107 16.9364L18.49 15.715C18.3914 15.715 18.2471 15.7571 18.1193 15.7571C17.6214 15.7571 17.5657 15.4907 17.5979 15.295L18.0007 12.8029H18.7593L18.9429 11.4507H18.2279L18.3743 10.6107" fill="#DCE5E5"/>
<path d="M19.4679 14.6079C19.4679 16.6393 20.1022 17.1221 21.2414 17.1221C22.2936 17.1221 22.755 16.8857 22.755 16.8857L23.0086 15.5C23.0086 15.5 22.2079 15.8543 21.485 15.8543C19.9457 15.8543 20.2157 14.7036 20.2157 14.7036H23.13C23.13 14.7036 23.3186 13.7721 23.3186 13.3921C23.3186 12.4457 22.8472 11.2929 21.2736 11.2929C19.8314 11.2914 19.4679 12.8486 19.4679 14.6079ZM21.28 12.5779C22.0886 12.5779 22.1836 13.4893 22.1836 13.5629H20.3472C20.3464 13.4693 20.4964 12.5779 21.28 12.5779Z" fill="#DCE5E5"/>
<path d="M30.3586 16.9371L30.615 15.3686C30.615 15.3686 29.9121 15.7243 29.4293 15.7243C28.4121 15.7243 28.0043 14.9443 28.0043 14.1093C28.0043 12.4121 28.8793 11.4779 29.8536 11.4779C30.5843 11.4779 31.1707 11.89 31.1707 11.89L31.405 10.3679C31.405 10.3679 30.535 10.015 29.79 10.015C28.1343 10.015 27.2264 11.4536 27.2264 14.1571C27.2264 15.9486 27.3936 17.1329 29.1043 17.1329C29.5886 17.1329 30.3586 16.9371 30.3586 16.9371Z" fill="#DCE5E5"/>
<path d="M8.47857 12.8679C8.47857 12.8679 9.10143 12.615 10.0414 12.615C10.5743 12.615 10.965 12.675 10.965 13.11C10.965 13.3743 10.9179 13.4721 10.9179 13.4721C10.9179 13.4721 10.4971 13.4357 10.3014 13.4357C9.06286 13.4357 7.75929 13.9657 7.75929 15.5657C7.75929 16.8257 8.61286 17.1143 9.14357 17.1143C10.155 17.1143 10.59 16.4571 10.6143 16.4543L10.5686 17.0043H11.8307L12.3936 13.0464C12.3936 11.3679 10.9321 11.3136 10.4243 11.3136M11.435 14.535C11.4614 14.7779 10.5793 15.9107 9.71643 15.9107C9.27143 15.9107 9.155 15.5686 9.155 15.3679C9.155 14.9743 9.36857 14.5021 10.42 14.5021C10.6643 14.5021 11.3929 14.5293 11.435 14.535Z" fill="#DCE5E5"/>
<path d="M12.1257 16.9079C12.16 16.92 12.5321 17.085 13.735 17.085C14.0579 17.085 15.9036 17.1686 15.9036 15.2586C15.9036 13.4729 14.195 13.8257 14.195 13.1079C14.195 12.7529 14.4729 12.6386 14.9829 12.6386C15.1843 12.6386 15.9629 12.7036 15.9629 12.7036L16.1443 11.4343C16.1443 11.4343 15.6407 11.3221 14.8214 11.3221C13.7593 11.3221 13.3857 11.7457 13.3857 13.1979C13.3857 14.845 14.4779 14.6779 14.4779 15.3707C14.4779 15.8336 13.9764 15.8721 13.5893 15.8721" fill="#DCE5E5"/>
<path d="M41.9271 12.0979C41.9271 12.0979 41.3871 11.3514 40.5428 11.3514C39.2286 11.3514 38.8364 12.9386 38.8364 14.7621C38.8364 15.9407 38.7171 17.0929 39.9114 17.0929C40.7707 17.0929 41.2457 16.4929 41.2457 16.4929L41.1836 17.005H42.5779L43.6736 10.1714M41.8707 13.9271C41.8707 14.685 41.1957 15.6979 40.4186 15.6979C39.9014 15.6979 39.6607 15.2643 39.6607 14.5821C39.6607 13.4686 40.1593 12.7321 40.7886 12.7321C41.3057 12.7329 41.8707 13.0886 41.8707 13.9271Z" fill="#DCE5E5"/>
<path d="M2.65929 17.0114L3.53286 11.8521L3.66143 17.0114H4.64929L6.49358 11.8521L5.67572 17.0114H7.14286L8.27429 10.1707H6.60429L4.59001 14.3679L4.51643 10.1707H3.71929L1.27786 17.0114H2.65929Z" fill="#DCE5E5"/>
<path d="M23.28 17.0221H24.7529C25.17 14.6443 25.2471 12.7121 26.2436 13.0643C26.4179 12.1443 26.5857 11.7886 26.7764 11.3986C26.7764 11.3986 26.6871 11.38 26.4993 11.38C25.8586 11.38 25.3829 12.2593 25.3829 12.2593L25.51 11.4521" fill="#DCE5E5"/>
<path d="M31.7236 12.8679C31.7236 12.8679 32.3443 12.615 33.2857 12.615C33.82 12.615 34.2107 12.675 34.2107 13.11C34.2107 13.3743 34.1621 13.4721 34.1621 13.4721C34.1621 13.4721 33.7414 13.4357 33.5457 13.4357C32.3057 13.4357 31.0036 13.9657 31.0036 15.5657C31.0036 16.8257 31.8579 17.1143 32.3879 17.1143C33.4 17.1143 33.835 16.4571 33.8586 16.4543L33.8129 17.0043H35.0764L35.6393 13.0464C35.6393 11.3679 34.1786 11.3136 33.6693 11.3136M34.6786 14.535C34.7057 14.7779 33.8257 15.9107 32.96 15.9107C32.515 15.9107 32.4 15.5686 32.4 15.3679C32.4 14.9743 32.6136 14.5021 33.6636 14.5021C33.9079 14.5021 34.6364 14.5293 34.6786 14.535Z" fill="#DCE5E5"/>
<path d="M35.3179 17.0221H36.79C37.2086 14.6443 37.285 12.7121 38.2821 13.0643C38.4564 12.1443 38.6243 11.7886 38.815 11.3986C38.815 11.3986 38.725 11.38 38.5379 11.38C37.895 11.38 37.4207 12.2593 37.4207 12.2593L37.5493 11.4521" fill="#DCE5E5"/>
</g>
<defs>
<clipPath id="clip0_2_38">
<rect width="45" height="27" fill="white"/>
</clipPath>
</defs>
</svg>
