<svg width="43" height="27" viewBox="0 0 43 27" fill="none" xmlns="http://www.w3.org/2000/svg">
<g clip-path="url(#clip0_2_316)">
<path fill-rule="evenodd" clip-rule="evenodd" d="M8.42268 0H19.1493C20.646 0 21.5815 1.22905 21.2307 2.7321L16.2338 24.2679C15.883 25.7709 14.3784 27 12.8817 27H2.1551C0.658369 27 -0.27709 25.7709 0.0737072 24.2679L5.07062 2.7321C5.42142 1.22122 6.91815 0 8.41489 0H8.42268Z" fill="#D10429"/>
<path fill-rule="evenodd" clip-rule="evenodd" d="M18.2112 0H30.5514C32.0482 0 31.37 1.22905 31.0192 2.7321L26.0223 24.2679C25.6715 25.7709 25.7806 27 24.2839 27H11.9436C10.4391 27 9.5114 25.7709 9.86999 24.2679L14.8669 2.7321C15.2177 1.22122 16.7144 0 18.219 0H18.2112Z" fill="#022E64"/>
<path fill-rule="evenodd" clip-rule="evenodd" d="M30.1183 0H40.8449C42.3416 0 43.2771 1.22905 42.9263 2.7321L37.9294 24.2679C37.5786 25.7709 36.0741 27 34.5773 27H23.8507C22.3462 27 21.4185 25.7709 21.7693 24.2679L26.7662 2.7321C27.117 1.22122 28.6138 0 30.1105 0H30.1183Z" fill="#076F74"/>
<path fill-rule="evenodd" clip-rule="evenodd" d="M28.3171 20.3025H29.3305L29.619 19.324H28.6134L28.3171 20.3025ZM29.1279 17.6096L28.7771 18.7682C28.7771 18.7682 29.159 18.5724 29.3695 18.5098C29.58 18.4628 29.8918 18.4237 29.8918 18.4237L30.1335 17.6174H29.1201L29.1279 17.6096ZM29.6346 15.9499L29.2994 17.0616C29.2994 17.0616 29.6735 16.8894 29.884 16.8346C30.0945 16.7798 30.4063 16.7641 30.4063 16.7641L30.648 15.9578H29.6424L29.6346 15.9499ZM31.8719 15.9499L30.5622 20.2947H30.913L30.6402 21.1949H30.2894L30.2036 21.4689H28.9564L29.0421 21.1949H26.5164L26.7658 20.3651H27.0231L28.3483 15.9499L28.6134 15.0575H29.884L29.7515 15.5037C29.7515 15.5037 30.0867 15.2611 30.4141 15.1749C30.7337 15.0888 32.5735 15.0575 32.5735 15.0575L32.3006 15.9421H31.8641L31.8719 15.9499Z" fill="#FEFEFE"/>
<path fill-rule="evenodd" clip-rule="evenodd" d="M32.3921 15.0575H33.7486L33.7642 15.5664C33.7564 15.6525 33.8265 15.6916 33.9902 15.6916H34.2631L34.0136 16.5292H33.2808C32.6494 16.5762 32.4077 16.3022 32.4233 15.9969L32.3999 15.0653L32.3921 15.0575ZM32.5591 19.0429H31.265L31.4833 18.2992H32.9645L33.1749 17.6182H31.7172L31.9666 16.7805H36.0203L35.7708 17.6182H34.4066L34.1961 18.2992H35.5604L35.3343 19.0429H33.8609L33.5959 19.356H34.1961L34.3443 20.2954C34.3599 20.3894 34.3599 20.452 34.391 20.4912C34.4222 20.5225 34.6015 20.5381 34.7029 20.5381H34.8822L34.6015 21.454H34.1416C34.0714 21.454 33.9623 21.4462 33.8142 21.4462C33.6739 21.4306 33.5803 21.3523 33.4868 21.3053C33.401 21.2662 33.2763 21.1644 33.2451 20.9843L33.1048 20.0449L32.4344 20.9687C32.2239 21.2583 31.9355 21.4854 31.4443 21.4854H30.5089L30.7583 20.6712H31.1169C31.2183 20.6712 31.3118 20.6321 31.382 20.5929C31.4521 20.5616 31.5145 20.5303 31.5769 20.4285L32.5591 19.0429ZM18.4043 17.0053H21.8265L21.577 17.8272H20.2128L20.0024 18.524H21.4055L21.1483 19.3694H19.7529L19.4099 20.5045C19.3709 20.6298 19.7451 20.6454 19.8776 20.6454L20.5792 20.5515L20.2986 21.4909H18.7239C18.5992 21.4909 18.5056 21.4752 18.3653 21.4439C18.2328 21.4126 18.1704 21.35 18.1158 21.2639C18.0613 21.1699 17.9677 21.0995 18.0301 20.8959L18.4822 19.3929H17.7027L17.9599 18.5318H18.7395L18.95 17.8351H18.1704L18.4199 17.0131L18.4043 17.0053ZM20.7687 15.5194H22.1719L21.9146 16.3727H19.997L19.7865 16.5527C19.6929 16.6388 19.6695 16.6075 19.5526 16.6702C19.4435 16.725 19.2174 16.8346 18.9212 16.8346H18.3053L18.5548 16.0126H18.7419C18.8978 16.0126 19.0069 15.9969 19.0615 15.9656C19.1239 15.9265 19.194 15.8404 19.2642 15.6994L19.615 15.0575H21.0104L20.7687 15.5272V15.5194ZM23.4134 16.9285C23.4134 16.9285 23.7954 16.5762 24.4502 16.4666C24.5983 16.4353 25.5338 16.451 25.5338 16.451L25.6741 15.9813H23.7018L23.4134 16.9363V16.9285ZM25.2687 17.2886H23.3121L23.1951 17.6878H24.8945C25.0972 17.6644 25.1362 17.6957 25.1518 17.68L25.2765 17.2886H25.2687ZM22.7274 15.0653H23.9201L23.7486 15.6681C23.7486 15.6681 24.1228 15.3628 24.3878 15.2532C24.6529 15.1593 25.2453 15.0653 25.2453 15.0653L27.1786 15.0575L26.516 17.2651C26.4069 17.6409 26.2743 17.8836 26.1964 18.001C26.1262 18.1106 26.0405 18.2123 25.869 18.3063C25.7053 18.3924 25.5572 18.4472 25.4168 18.455C25.2921 18.4629 25.0894 18.4707 24.8244 18.4707H22.9613L22.439 20.2164C22.3922 20.3886 22.3688 20.4747 22.4 20.5217C22.4234 20.5609 22.4935 20.6078 22.5793 20.6078L23.3978 20.5295L23.1172 21.4846H22.1973C21.9011 21.4846 21.6906 21.4768 21.5425 21.4689C21.4022 21.4533 21.254 21.4689 21.1527 21.3907C21.067 21.3124 20.9344 21.2106 20.9422 21.1088C20.95 21.0149 20.989 20.8583 21.0514 20.6391L22.7274 15.0653Z" fill="#FEFEFE"/>
<path fill-rule="evenodd" clip-rule="evenodd" d="M26.203 18.5784L26.0939 19.1108C26.0471 19.2752 26.0081 19.4004 25.8834 19.51C25.7509 19.6196 25.6027 19.737 25.2442 19.737L24.5815 19.7683L24.5737 20.3633C24.5659 20.5277 24.6127 20.512 24.6361 20.5433C24.6673 20.5747 24.6907 20.5825 24.7219 20.5981L24.9323 20.5825L25.5638 20.5512L25.2987 21.428H24.5737C24.067 21.428 23.6851 21.4123 23.5681 21.3184C23.4434 21.2401 23.4278 21.1461 23.4278 20.9739L23.4746 18.6411H24.6361L24.6205 19.1186H24.9012C24.9947 19.1186 25.0649 19.1108 25.1038 19.0873C25.1428 19.0638 25.1662 19.0246 25.1818 18.9698L25.2987 18.5941H26.2108L26.203 18.5784ZM9.67774 6.892C9.63877 7.07988 8.8904 10.5322 8.8904 10.5322C8.72669 11.2289 8.60976 11.7299 8.21999 12.0509C7.99392 12.2388 7.72887 12.3249 7.42485 12.3249C6.93373 12.3249 6.65309 12.0822 6.60632 11.6203L6.59852 11.4638C6.59852 11.4638 6.74664 10.5322 6.74664 10.5244C6.74664 10.5244 7.52619 7.37736 7.66651 6.96245C7.6743 6.93897 7.6743 6.92331 7.6743 6.91548C6.15418 6.93114 5.88134 6.91548 5.86575 6.892C5.85795 6.92331 5.81897 7.11902 5.81897 7.11902L5.02383 10.6653L4.95368 10.9627L4.82115 11.9491C4.82115 12.2388 4.87572 12.4814 4.99265 12.6772C5.35904 13.3191 6.39584 13.413 6.9805 13.413C7.73667 13.413 8.44606 13.2486 8.92158 12.959C9.7557 12.4658 9.97397 11.6908 10.1611 11.0097L10.2546 10.6574C10.2546 10.6574 11.0575 7.39301 11.1979 6.97028C11.2057 6.9468 11.2057 6.93114 11.2135 6.92331C10.1065 6.93114 9.78688 6.92331 9.67774 6.89983V6.892ZM14.1244 13.3812C13.5865 13.3733 13.3916 13.3733 12.7602 13.4046L12.7368 13.3577C12.7914 13.115 12.8537 12.8801 12.9005 12.6375L12.9785 12.3087C13.0954 11.7998 13.2045 11.197 13.2201 11.017C13.2357 10.9074 13.2669 10.6334 12.9551 10.6334C12.8226 10.6334 12.69 10.696 12.5497 10.7587C12.4718 11.0327 12.3236 11.7998 12.2457 12.1443C12.0898 12.8801 12.082 12.9663 12.0118 13.3264L11.9651 13.3733C11.4116 13.3655 11.2167 13.3655 10.5775 13.3968L10.5463 13.342C10.6554 12.9036 10.7568 12.4652 10.8581 12.0269C11.1231 10.8448 11.1933 10.3907 11.2635 9.78795L11.318 9.75663C11.9417 9.67052 12.0898 9.64704 12.768 9.51395L12.8226 9.57658L12.7212 9.95234C12.8382 9.88189 12.9473 9.81143 13.0642 9.75663C13.3838 9.60006 13.7346 9.55309 13.9295 9.55309C14.2257 9.55309 14.5532 9.63921 14.6857 9.98365C14.8104 10.289 14.7325 10.6647 14.561 11.4084L14.4752 11.7842C14.3037 12.614 14.2725 12.7627 14.179 13.3264L14.1166 13.3733L14.1244 13.3812ZM16.3135 13.3832C15.9861 13.3832 15.7756 13.3754 15.5729 13.3832C15.3702 13.3832 15.1753 13.3989 14.8713 13.4067L14.8557 13.3832L14.8401 13.3519C14.9259 13.0388 14.9648 12.9292 15.0116 12.8196C15.0506 12.71 15.0896 12.6004 15.1675 12.2794C15.2611 11.8645 15.3234 11.5749 15.3624 11.3165C15.4092 11.0739 15.4326 10.8625 15.4638 10.6198L15.4871 10.6042L15.5105 10.5807C15.8379 10.5337 16.0406 10.5024 16.2511 10.4711C16.4616 10.4398 16.6799 10.4006 17.0151 10.338L17.0307 10.3693L17.0384 10.4006C16.9761 10.659 16.9137 10.9173 16.8514 11.1756C16.789 11.434 16.7266 11.6923 16.6721 11.9506C16.5551 12.4986 16.5006 12.7022 16.4772 12.8509C16.446 12.9918 16.4382 13.0623 16.3914 13.3441L16.3602 13.3676L16.3291 13.3911L16.3135 13.3832ZM19.7742 11.4598C19.7508 11.6008 19.6261 12.1253 19.4624 12.3444C19.3455 12.5088 19.2129 12.6106 19.057 12.6106C19.0103 12.6106 18.7452 12.6106 18.7374 12.2114C18.7374 12.0157 18.7764 11.8121 18.8232 11.5929C18.9635 10.9588 19.135 10.4343 19.5637 10.4343C19.8989 10.4343 19.9223 10.8257 19.7742 11.4598ZM21.1852 11.5225C21.3723 10.6927 21.2242 10.3012 21.0449 10.0664C20.7642 9.70629 20.2653 9.58887 19.7508 9.58887C19.439 9.58887 18.7062 9.62018 18.1294 10.1525C17.7162 10.5361 17.5213 11.0606 17.4122 11.5616C17.2953 12.0705 17.1627 12.9864 18.0046 13.3308C18.2619 13.4404 18.6361 13.4717 18.8777 13.4717C19.4936 13.4717 20.125 13.2995 20.6005 12.7985C20.9669 12.3914 21.1306 11.7808 21.193 11.5225H21.1852ZM34.3253 13.4762C33.6704 13.4684 33.4834 13.4684 32.8831 13.4997L32.8441 13.4527C33.0078 12.8343 33.1715 12.208 33.3197 11.5817C33.5067 10.7676 33.5535 10.4231 33.6159 9.9456L33.6627 9.90646C34.3097 9.81252 34.489 9.78903 35.1672 9.66378L35.1828 9.71858C35.058 10.2352 34.9411 10.7441 34.8164 11.2529C34.5669 12.3254 34.4812 12.8734 34.3876 13.437L34.3253 13.484V13.4762Z" fill="#FEFEFE"/>
<path fill-rule="evenodd" clip-rule="evenodd" d="M33.3835 11.5646C33.3523 11.6977 33.2276 12.23 33.0639 12.4492C32.9547 12.6058 32.6897 12.7075 32.5416 12.7075C32.4948 12.7075 32.2376 12.7075 32.222 12.3161C32.222 12.1204 32.2609 11.9169 32.3077 11.6977C32.448 11.0792 32.6195 10.5547 33.0483 10.5547C33.3835 10.5547 33.5316 10.9383 33.3835 11.5724V11.5646ZM34.6698 11.6272C34.8568 10.7974 34.0929 11.5568 33.9759 11.2828C33.7889 10.8522 33.9058 9.99111 33.1574 9.70146C32.869 9.58403 32.1908 9.73277 31.6139 10.2651C31.2086 10.6409 31.0059 11.1654 30.8967 11.6664C30.7798 12.1674 30.6473 13.0911 31.4814 13.4121C31.7464 13.5295 31.9881 13.5608 32.2298 13.5452C33.0717 13.4982 33.7109 12.2222 34.1864 11.7212C34.5528 11.3219 34.6152 11.8699 34.6698 11.6272ZM24.8811 13.3812C24.3432 13.3733 24.1561 13.3733 23.5247 13.4046L23.5013 13.3577C23.5559 13.115 23.6182 12.8801 23.6728 12.6375L23.7429 12.3087C23.8599 11.7998 23.9768 11.197 23.9846 11.017C24.0002 10.9074 24.0314 10.6334 23.7274 10.6334C23.5948 10.6334 23.4545 10.696 23.322 10.7587C23.2518 11.0327 23.0959 11.7998 23.018 12.1443C22.8699 12.8801 22.8543 12.9663 22.7841 13.3264L22.7373 13.3733C22.1839 13.3655 21.989 13.3655 21.3497 13.3968L21.3186 13.342C21.4277 12.9036 21.529 12.4652 21.6304 12.0269C21.8954 10.8448 21.9578 10.3907 22.0357 9.78795L22.0825 9.75663C22.7062 9.67052 22.8621 9.64704 23.5325 9.51395L23.587 9.57658L23.4935 9.95234C23.6026 9.88189 23.7196 9.81143 23.8287 9.75663C24.1483 9.60006 24.4991 9.55309 24.694 9.55309C24.9902 9.55309 25.3098 9.63921 25.4502 9.98365C25.5749 10.289 25.4891 10.6647 25.3176 11.4084L25.2319 11.7842C25.0526 12.614 25.0292 12.7627 24.9357 13.3264L24.8733 13.3733L24.8811 13.3812ZM29.5517 6.89983L29.0995 6.90765C27.9302 6.92331 27.4625 6.91548 27.2754 6.892C27.2598 6.97811 27.2286 7.12685 27.2286 7.12685C27.2286 7.12685 26.8077 9.06828 26.8077 9.07611C26.8077 9.07611 25.8098 13.2095 25.7631 13.4052C26.7843 13.3895 27.1974 13.3895 27.3767 13.413C27.4157 13.2173 27.6496 12.0665 27.6574 12.0665C27.6574 12.0665 27.86 11.2211 27.8678 11.1898C27.8678 11.1898 27.9302 11.1037 27.9926 11.0645H28.0861C28.967 11.0645 29.957 11.0645 30.7366 10.493C31.2667 10.1016 31.6253 9.5145 31.789 8.80994C31.828 8.63772 31.8591 8.43418 31.8591 8.22282C31.8591 7.94883 31.8046 7.68266 31.6487 7.4713C31.2511 6.91548 30.4637 6.90765 29.5517 6.89983ZM30.1363 8.92737C30.0428 9.35793 29.7621 9.72586 29.4036 9.89809C29.1073 10.0468 28.7487 10.0625 28.3745 10.0625H28.1329L28.1485 9.96854C28.1485 9.96854 28.5928 8.02711 28.5928 8.03494L28.6084 7.93317L28.6162 7.85489L28.7955 7.87054C28.7955 7.87054 29.7154 7.94883 29.731 7.94883C30.0896 8.08974 30.2455 8.44984 30.1363 8.92737ZM39.7189 9.57658L39.6643 9.51395C39.0017 9.64704 38.877 9.67052 38.2689 9.75663L38.2222 9.8036C38.2222 9.81143 38.2144 9.81926 38.2144 9.83492V9.82709C37.7622 10.8839 37.77 10.6569 37.4036 11.4867C37.4036 11.4476 37.4036 11.4241 37.3959 11.3849L37.3023 9.58441L37.2477 9.52178C36.5461 9.65486 36.5305 9.67835 35.8913 9.76446L35.8445 9.81143C35.8368 9.83492 35.8367 9.8584 35.8367 9.88189L35.8445 9.88971C35.9225 10.3046 35.9069 10.2107 35.9849 10.8604C36.0238 11.1814 36.0706 11.5024 36.1096 11.8155C36.172 12.3478 36.2109 12.6062 36.2889 13.4125C35.8523 14.1327 35.751 14.4067 35.33 15.0408L35.3534 15.1034C35.9849 15.0799 36.1252 15.0799 36.5929 15.0799L36.6943 14.9625C37.0451 14.2031 39.7267 9.58441 39.7267 9.58441L39.7189 9.57658ZM16.915 10.0952C17.2736 9.84465 17.3204 9.5002 17.0163 9.32015C16.7123 9.1401 16.1744 9.1949 15.8158 9.4454C15.4572 9.68808 15.4183 10.0325 15.7223 10.2204C16.0185 10.3926 16.5564 10.3457 16.915 10.0952Z" fill="#FEFEFE"/>
<path fill-rule="evenodd" clip-rule="evenodd" d="M36.5907 15.0653L36.0684 15.9656C35.9047 16.2709 35.5929 16.5058 35.1095 16.5058L34.2754 16.4901L34.5171 15.676H34.6808C34.7665 15.676 34.8289 15.6681 34.8757 15.6446C34.9224 15.629 34.9458 15.5977 34.9848 15.5507L35.2966 15.0575H36.5985L36.5907 15.0653Z" fill="#FEFEFE"/>
</g>
<defs>
<clipPath id="clip0_2_316">
<rect width="43" height="27" fill="white"/>
</clipPath>
</defs>
</svg>
