<svg width="44" height="27" viewBox="0 0 44 27" fill="none" xmlns="http://www.w3.org/2000/svg">
<g clip-path="url(#clip0_2_29)">
<path d="M0 2.025C0 0.91125 0.91125 0 2.025 0H41.175C42.2888 0 43.2 0.91125 43.2 2.025V24.975C43.2 26.0888 42.2888 27 41.175 27H2.025C0.91125 27 0 26.0888 0 24.975V2.025Z" fill="white"/>
<mask id="mask0_2_29" style="mask-type:luminance" maskUnits="userSpaceOnUse" x="0" y="0" width="44" height="27">
<path d="M0 2.025C0 0.91125 0.91125 0 2.025 0H41.175C42.2888 0 43.2 0.91125 43.2 2.025V24.975C43.2 26.0888 42.2888 27 41.175 27H2.025C0.91125 27 0 26.0888 0 24.975V2.025Z" fill="white"/>
</mask>
<g mask="url(#mask0_2_29)">
<path d="M0 2.025C0 0.91125 0.91125 0 2.025 0H41.175C42.2888 0 43.2 0.91125 43.2 2.025V24.975C43.2 26.0888 42.2888 27 41.175 27H2.025C0.91125 27 0 26.0888 0 24.975V2.025Z" fill="white" stroke="#CBCBCB" stroke-width="0.675" stroke-miterlimit="10"/>
</g>
<mask id="mask1_2_29" style="mask-type:luminance" maskUnits="userSpaceOnUse" x="1" y="21" width="41" height="5">
<path d="M41.3775 21.6H1.78875V25.2112H41.3775V21.6Z" fill="white"/>
</mask>
<g mask="url(#mask1_2_29)">
<path d="M43.065 19.9125H0.10125V26.8987H43.065V19.9125Z" fill="#F7B600"/>
</g>
<mask id="mask2_2_29" style="mask-type:luminance" maskUnits="userSpaceOnUse" x="1" y="1" width="41" height="5">
<path d="M41.3775 1.78875H1.78875V5.4H41.3775V1.78875Z" fill="white"/>
</mask>
<g mask="url(#mask2_2_29)">
<path d="M43.065 0.101252H0.10125V7.0875H43.065V0.101252Z" fill="#1A1F71"/>
</g>
<mask id="mask3_2_29" style="mask-type:luminance" maskUnits="userSpaceOnUse" x="6" y="8" width="32" height="11">
<path d="M21.6675 8.74125L19.6087 18.4275H17.1112L19.17 8.74125H21.6675V8.74125ZM32.265 14.985L33.5813 11.34L34.3575 14.985H32.265ZM35.0662 18.4275H37.395L35.37 8.74125H33.21C32.7375 8.74125 32.2987 9.01125 32.13 9.45L28.35 18.4275H30.9825L31.4888 16.9763H34.7287L35.0662 18.4275ZM28.5188 15.255C28.5188 12.69 24.975 12.555 25.0087 11.4075C25.0087 11.0362 25.3462 10.6988 26.0887 10.5975C26.9325 10.53 27.81 10.665 28.5862 11.0363L29.025 8.9775C28.2825 8.67375 27.4725 8.53875 26.6625 8.53875C24.165 8.53875 22.4437 9.855 22.41 11.745C22.3762 13.1625 23.6587 13.905 24.6037 14.3775C25.5487 14.85 25.92 15.1875 25.92 15.5925C25.92 16.2337 25.11 16.5375 24.4012 16.5375C23.49 16.5713 22.6125 16.335 21.8025 15.93L21.33 18.0563C22.2075 18.4275 23.1525 18.5963 24.1312 18.5625C26.7637 18.5963 28.485 17.28 28.5188 15.255ZM18.09 8.74125L14.04 18.4275H11.3737L9.3825 10.665C9.2475 10.1925 9.14625 10.0237 8.80875 9.82125C8.0325 9.45 7.18875 9.18 6.31125 9.01125L6.37875 8.74125H10.665C11.2387 8.74125 11.745 9.18 11.8125 9.75375L12.825 15.3225L15.4237 8.7075H18.09V8.74125Z" fill="white"/>
</mask>
<g mask="url(#mask3_2_29)">
<path d="M39.0825 6.85125H4.62375V20.25H39.0825V6.85125Z" fill="#1A1F71"/>
</g>
</g>
<defs>
<clipPath id="clip0_2_29">
<rect width="43.2" height="27" fill="white"/>
</clipPath>
</defs>
</svg>
