<svg width="1424" height="440" viewBox="0 0 1424 440" fill="none" xmlns="http://www.w3.org/2000/svg">
<g clip-path="url(#clip0_4_44)">
<rect x="159.713" y="236.64" width="90.1288" height="25.1321" fill="white"/>
<g filter="url(#filter0_d_4_44)">
<rect x="156.246" y="217.573" width="99.6617" height="25.1321" fill="white"/>
</g>
<path d="M106.109 318.786C109.705 286.503 132.516 259.257 164.999 259.257H247.241C278.83 259.257 304.438 284.865 304.438 316.454L304.438 318.621C304.438 350.21 278.83 375.818 247.241 375.818H113.874C96.4108 375.818 79.904 367.84 69.0546 354.155L38.3886 315.476C19.307 291.408 38.146 244.443 58.9304 267.056V267.056C73.2443 282.63 53.7156 316.887 58.9304 321.22C57.5018 318.187 64.1451 325.554 58.9304 321.22C60.359 324.254 103.056 322.52 105.475 321.22C105.742 321.077 105.95 320.212 106.109 318.786Z" fill="white"/>
<path d="M96.627 133.511C96.627 127.767 101.283 123.111 107.026 123.111H108.76C112.589 123.111 115.693 126.215 115.693 130.044V181.175C115.693 185.004 112.589 188.108 108.76 188.108H107.026C101.283 188.108 96.627 183.452 96.627 177.709V133.511Z" fill="white"/>
<path d="M294.217 130.044C294.217 126.215 297.321 123.111 301.15 123.111H302.883C308.627 123.111 313.283 127.767 313.283 133.511V177.709C313.283 183.452 308.627 188.108 302.883 188.108H301.15C297.321 188.108 294.217 185.004 294.217 181.175V130.044Z" fill="white"/>
<path d="M108.76 105.78C108.76 82.8057 127.384 64.1816 150.358 64.1816H300.284V201.108C300.284 224.082 281.66 242.706 258.686 242.706H150.358C127.384 242.706 108.76 224.082 108.76 201.108V105.78Z" fill="white"/>
<ellipse cx="248.72" cy="153.443" rx="24.6988" ry="26.8653" fill="#15AC65"/>
<ellipse cx="162.925" cy="153.443" rx="24.6988" ry="26.8653" fill="#15AC65"/>
<path d="M382.793 355C373.431 355 364.889 352.66 357.166 347.979C349.442 343.298 343.24 337.096 338.559 329.373C334.113 321.649 331.889 313.224 331.889 304.096V151.386H385.601V301.288H484.6V151.386H538.312V304.096C538.312 313.224 535.972 321.649 531.291 329.373C526.844 337.096 520.759 343.298 513.036 347.979C505.312 352.66 496.77 355 487.408 355H382.793ZM565.804 355V151.386H721.323C730.685 151.386 739.227 153.726 746.951 158.407C754.674 163.088 760.759 169.29 765.206 177.013C769.886 184.736 772.227 193.162 772.227 202.289V355H718.515V205.098H619.516V355H565.804ZM789.769 435.744V151.386H945.288C954.649 151.386 963.192 153.726 970.915 158.407C978.639 163.088 984.724 169.29 989.17 177.013C993.851 184.736 996.191 193.162 996.191 202.289V304.096C996.191 313.224 993.851 321.649 989.17 329.373C984.724 337.096 978.639 343.298 970.915 347.979C963.192 352.66 954.649 355 945.288 355H843.481V435.744H789.769ZM843.481 301.288H942.479V205.098H843.481V301.288ZM1062.56 355C1053.44 355 1045.01 352.66 1037.29 347.979C1029.56 343.298 1023.36 337.096 1018.68 329.373C1014 321.649 1011.66 313.224 1011.66 304.096V84.3336H1065.72V301.288H1106.8V355H1062.56ZM1130.03 355V151.386H1183.74V355H1130.03ZM1130.03 138.748V84.6847H1183.74V138.748H1130.03ZM1247.3 355C1237.94 355 1229.4 352.66 1221.68 347.979C1213.95 343.298 1207.75 337.096 1203.07 329.373C1198.62 321.649 1196.4 313.224 1196.4 304.096V202.289C1196.4 193.162 1198.62 184.736 1203.07 177.013C1207.75 169.29 1213.95 163.088 1221.68 158.407C1229.4 153.726 1237.94 151.386 1247.3 151.386H1349.46V84.6847H1403.17V355H1247.3ZM1250.46 301.288H1349.46V205.098H1250.46V301.288Z" fill="white"/>
</g>
<defs>
<filter id="filter0_d_4_44" x="151.913" y="216.707" width="108.328" height="33.7981" filterUnits="userSpaceOnUse" color-interpolation-filters="sRGB">
<feFlood flood-opacity="0" result="BackgroundImageFix"/>
<feColorMatrix in="SourceAlpha" type="matrix" values="0 0 0 0 0 0 0 0 0 0 0 0 0 0 0 0 0 0 127 0" result="hardAlpha"/>
<feMorphology radius="0.866624" operator="dilate" in="SourceAlpha" result="effect1_dropShadow_4_44"/>
<feOffset dy="3.46649"/>
<feGaussianBlur stdDeviation="1.73325"/>
<feComposite in2="hardAlpha" operator="out"/>
<feColorMatrix type="matrix" values="0 0 0 0 0 0 0 0 0 0 0 0 0 0 0 0 0 0 0.14 0"/>
<feBlend mode="normal" in2="BackgroundImageFix" result="effect1_dropShadow_4_44"/>
<feBlend mode="normal" in="SourceGraphic" in2="effect1_dropShadow_4_44" result="shape"/>
</filter>
<clipPath id="clip0_4_44">
<rect width="1423.28" height="440" fill="white"/>
</clipPath>
</defs>
</svg>
