<svg width="114" height="41" viewBox="0 0 114 41" fill="none" xmlns="http://www.w3.org/2000/svg">
<g clip-path="url(#clip0_20_9)">
<path d="M7.09882 36C6.14275 36 5.27034 35.761 4.48158 35.2829C3.69282 34.8049 3.05942 34.1715 2.58139 33.3828C2.12726 32.594 1.90019 31.7335 1.90019 30.8014V15.2055H7.38564V30.5145H17.4961V15.2055H22.9815V30.8014C22.9815 31.7335 22.7425 32.594 22.2645 33.3828C21.8103 34.1715 21.1889 34.8049 20.4001 35.2829C19.6114 35.761 18.739 36 17.7829 36H7.09882ZM25.7892 36V15.2055H41.672C42.628 15.2055 43.5004 15.4445 44.2892 15.9225C45.078 16.4006 45.6994 17.034 46.1535 17.8227C46.6316 18.6115 46.8706 19.4719 46.8706 20.4041V36H41.3851V20.6909H31.2747V36H25.7892ZM48.6621 44.2461V15.2055H64.5448C65.5009 15.2055 66.3733 15.4445 67.1621 15.9225C67.9508 16.4006 68.5723 17.034 69.0264 17.8227C69.5044 18.6115 69.7434 19.4719 69.7434 20.4041V30.8014C69.7434 31.7335 69.5044 32.594 69.0264 33.3828C68.5723 34.1715 67.9508 34.8049 67.1621 35.2829C66.3733 35.761 65.5009 36 64.5448 36H54.1475V44.2461H48.6621ZM54.1475 30.5145H64.258V20.6909H54.1475V30.5145ZM76.5218 36C75.5897 36 74.7292 35.761 73.9404 35.2829C73.1517 34.8049 72.5183 34.1715 72.0403 33.3828C71.5622 32.594 71.3232 31.7335 71.3232 30.8014V8.35762H76.8445V30.5145H81.0393V36H76.5218ZM83.4123 36V15.2055H88.8977V36H83.4123ZM83.4123 13.9148V8.39348H88.8977V13.9148H83.4123ZM95.3887 36C94.4327 36 93.5602 35.761 92.7715 35.2829C91.9827 34.8049 91.3493 34.1715 90.8713 33.3828C90.4172 32.594 90.1901 31.7335 90.1901 30.8014V20.4041C90.1901 19.4719 90.4172 18.6115 90.8713 17.8227C91.3493 17.034 91.9827 16.4006 92.7715 15.9225C93.5602 15.4445 94.4327 15.2055 95.3887 15.2055H105.822V8.39348H111.307V36H95.3887ZM95.7114 30.5145H105.822V20.6909H95.7114V30.5145Z" fill="white"/>
</g>
<defs>
<clipPath id="clip0_20_9">
<rect width="113.361" height="40.2036" fill="white"/>
</clipPath>
</defs>
</svg>
