<svg width="340" height="10" viewBox="0 0 340 10" fill="none" xmlns="http://www.w3.org/2000/svg">
<g clip-path="url(#clip0_7_42)">
<path d="M0 0H10V5L6 10H5H4L0 5V0Z" fill="#f0de9e"/>
<path d="M10 0H20V5L16 10H15H14L10 5V0Z" fill="#f0de9e"/>
<path d="M20 0H30V5L26 10H25H24L20 5V0Z" fill="#f0de9e"/>
<path d="M30 0H40V5L36 10H35H34L30 5V0Z" fill="#f0de9e"/>
<path d="M40 0H50V5L46 10H45H44L40 5V0Z" fill="#f0de9e"/>
<path d="M50 0H60V5L56 10H55H54L50 5V0Z" fill="#f0de9e"/>
<path d="M60 0H70V5L66 10H65H64L60 5V0Z" fill="#f0de9e"/>
<path d="M70 0H80V5L76 10H75H74L70 5V0Z" fill="#f0de9e"/>
<path d="M80 0H90V5L86 10H85H84L80 5V0Z" fill="#f0de9e"/>
<path d="M90 0H100V5L96 10H95H94L90 5V0Z" fill="#f0de9e"/>
<path d="M100 0H110V5L106 10H105H104L100 5V0Z" fill="#f0de9e"/>
<path d="M110 0H120V5L116 10H115H114L110 5V0Z" fill="#f0de9e"/>
<path d="M120 0H130V5L126 10H125H124L120 5V0Z" fill="#f0de9e"/>
<path d="M130 0H140V5L136 10H135H134L130 5V0Z" fill="#f0de9e"/>
<path d="M140 0H150V5L146 10H145H144L140 5V0Z" fill="#f0de9e"/>
<path d="M150 0H160V5L156 10H155H154L150 5V0Z" fill="#f0de9e"/>
<path d="M160 0H170V5L166 10H165H164L160 5V0Z" fill="#f0de9e"/>
<path d="M170 0H180V5L176 10H175H174L170 5V0Z" fill="#f0de9e"/>
<path d="M180 0H190V5L186 10H185H184L180 5V0Z" fill="#f0de9e"/>
<path d="M190 0H200V5L196 10H195H194L190 5V0Z" fill="#f0de9e"/>
<path d="M200 0H210V5L206 10H205H204L200 5V0Z" fill="#f0de9e"/>
<path d="M210 0H220V5L216 10H215H214L210 5V0Z" fill="#f0de9e"/>
<path d="M220 0H230V5L226 10H225H224L220 5V0Z" fill="#f0de9e"/>
<path d="M230 0H240V5L236 10H235H234L230 5V0Z" fill="#f0de9e"/>
<path d="M240 0H250V5L246 10H245H244L240 5V0Z" fill="#f0de9e"/>
<path d="M250 0H260V5L256 10H255H254L250 5V0Z" fill="#f0de9e"/>
<path d="M260 0H270V5L266 10H265H264L260 5V0Z" fill="#f0de9e"/>
<path d="M270 0H280V5L276 10H275H274L270 5V0Z" fill="#f0de9e"/>
<path d="M280 0H290V5L286 10H285H284L280 5V0Z" fill="#f0de9e"/>
<path d="M290 0H300V5L296 10H295H294L290 5V0Z" fill="#f0de9e"/>
<path d="M300 0H310V5L306 10H305H304L300 5V0Z" fill="#f0de9e"/>
<path d="M310 0H320V5L316 10H315H314L310 5V0Z" fill="#f0de9e"/>
<path d="M320 0H330V5L326 10H325H324L320 5V0Z" fill="#f0de9e"/>
<path d="M330 0H340V5L336 10H335H334L330 5V0Z" fill="#f0de9e"/>
</g>
<defs>
<clipPath id="clip0_7_42">
<rect width="340" height="10" fill="#f0de9e"/>
</clipPath>
</defs>
</svg>
